<?xml version="1.0" standalone="no"?>
<!DOCTYPE svg PUBLIC "-//W3C//DTD SVG 20010904//EN"
 "http://www.w3.org/TR/2001/REC-SVG-20010904/DTD/svg10.dtd">
<svg version="1.0" xmlns="http://www.w3.org/2000/svg"
 width="700.000000pt" height="700.000000pt" viewBox="0 0 700.000000 700.000000"
 preserveAspectRatio="xMidYMid meet">
<metadata>
Created by potrace 1.11, written by Peter Selinger 2001-2013
</metadata>
<g transform="translate(0.000000,700.000000) scale(0.100000,-0.100000)"
fill="#000000" stroke="none">
<path d="M4255 5950 c-22 -9 -80 -36 -128 -59 -49 -22 -90 -41 -92 -41 -1 0
-56 -25 -120 -55 -65 -31 -139 -65 -164 -77 -25 -11 -83 -38 -129 -59 -45 -22
-84 -39 -86 -39 -2 0 -65 -29 -141 -65 -75 -36 -138 -65 -140 -65 -1 0 -45
-20 -96 -44 -52 -24 -120 -55 -151 -70 -108 -49 -173 -79 -248 -113 -184 -86
-433 -200 -505 -233 -27 -12 -101 -47 -164 -76 -62 -30 -115 -54 -117 -54 -1
0 -55 -25 -119 -55 -65 -30 -119 -55 -120 -55 -2 0 -60 -27 -130 -60 -70 -33
-128 -60 -130 -60 -2 0 -61 -27 -131 -60 -69 -33 -128 -60 -129 -60 -2 0 -52
-23 -112 -51 -59 -28 -151 -70 -203 -94 -52 -24 -131 -60 -175 -80 -150 -70
-210 -98 -275 -127 -36 -16 -99 -45 -140 -64 -41 -19 -127 -59 -190 -88 l-115
-53 -3 -1459 -2 -1459 3482 2 c1916 1 3491 2 3501 2 16 1 17 66 17 1214 l0
1213 -257 109 c-142 60 -350 148 -463 196 -377 160 -582 246 -1110 469 -289
122 -543 230 -565 240 -22 9 -97 41 -167 71 l-128 53 0 663 c0 365 -3 663 -7
662 -5 0 -26 -9 -48 -19z m-173 -901 l3 -562 130 -54 c72 -30 220 -93 330
-140 110 -47 387 -164 615 -260 228 -96 429 -181 445 -188 60 -26 102 -43 172
-74 39 -17 74 -31 77 -31 3 0 29 -11 58 -24 29 -14 215 -93 413 -176 198 -83
379 -160 402 -171 24 -10 47 -19 53 -19 7 0 10 -339 10 -1020 l0 -1020 -3290
0 -3290 0 0 1265 c0 696 4 1265 8 1265 7 0 256 114 1202 550 58 26 135 62 173
79 37 17 95 44 130 60 34 16 175 81 312 144 138 63 286 131 330 152 44 20 163
75 265 122 102 47 385 178 630 290 245 113 463 213 485 223 22 10 81 37 130
60 151 71 190 89 197 89 4 1 9 -252 10 -560z"/>
<path d="M3298 4165 c-2 -1 -28 -5 -58 -9 -98 -11 -263 -47 -355 -78 -277 -93
-474 -250 -511 -408 -4 -19 -8 -372 -9 -785 -1 -689 0 -754 16 -802 42 -124
150 -228 334 -321 61 -30 248 -96 302 -106 15 -2 60 -11 98 -20 118 -25 144
-27 345 -31 211 -4 316 6 515 49 65 13 211 64 284 97 147 68 262 157 321 249
57 88 57 87 55 910 l-1 755 -26 58 c-48 103 -161 204 -318 283 -72 36 -223 92
-270 100 -14 3 -33 7 -42 10 -9 3 -27 7 -40 10 -13 2 -34 7 -48 10 -92 20
-241 32 -402 32 -103 0 -188 -1 -190 -3z m397 -289 c170 -19 327 -62 461 -126
122 -59 200 -124 190 -158 -18 -57 -190 -156 -357 -206 -74 -22 -113 -31 -219
-51 -50 -10 -177 -18 -270 -19 -189 0 -374 29 -535 84 -149 51 -315 156 -315
200 0 27 80 92 168 138 138 72 337 126 507 138 44 4 81 7 82 8 6 5 231 -2 288
-8z m655 -823 c0 -170 -1 -179 -23 -204 -73 -83 -321 -193 -486 -215 -25 -3
-48 -8 -52 -9 -41 -25 -500 -25 -589 0 -8 2 -26 6 -40 9 -76 14 -183 43 -235
65 -129 55 -208 102 -252 150 -22 23 -23 31 -23 197 0 96 2 174 4 174 2 0 36
-15 77 -34 122 -56 283 -106 384 -121 22 -3 45 -8 52 -10 58 -19 455 -28 583
-12 178 21 395 82 520 146 41 21 76 39 78 39 1 1 2 -78 2 -175z m-1497 -632
c98 -34 216 -65 292 -76 28 -4 59 -9 70 -11 123 -24 446 -23 585 1 14 3 41 7
60 10 158 26 305 75 483 163 4 2 7 -76 7 -174 l0 -178 -46 -42 c-108 -101
-386 -198 -629 -220 -154 -14 -358 -7 -476 17 -30 6 -67 13 -84 16 -61 10
-254 81 -317 116 -35 20 -83 52 -106 73 l-42 36 0 179 0 179 58 -29 c31 -16
96 -43 145 -60z"/>
</g>
</svg>
