<svg id="Ebene_1" data-name="Ebene 1" xmlns="http://www.w3.org/2000/svg" viewBox="0 0 216 216"><defs><style>.cls-1{fill:none;stroke:#485460;stroke-miterlimit:10;stroke-width:16px;}.cls-2{fill:#53b581;}</style></defs><title>check-circle</title><path class="cls-1" d="M12.5,113a100,100,0,0,0,100,100" transform="translate(-4.5 -5)"/><path class="cls-1" d="M112.5,213a100,100,0,0,0,100-100" transform="translate(-4.5 -5)"/><path class="cls-1" d="M212.5,113a100,100,0,0,0-100-100" transform="translate(-4.5 -5)"/><path class="cls-1" d="M112.5,13a100,100,0,0,0-100,100" transform="translate(-4.5 -5)"/><rect class="cls-2" x="21.75" y="138.48" width="81" height="20" rx="5.33" ry="5.33" transform="translate(119.75 -5.1) rotate(45.39)"/><path class="cls-2" d="M59.37,111.59H202.11a5.17,5.17,0,0,1,5.17,5.17V128a5.64,5.64,0,0,1-5.64,5.64H59.37A5.64,5.64,0,0,1,53.73,128V117.23a5.64,5.64,0,0,1,5.64-5.64Z" transform="translate(-53 121.96) rotate(-44.61)"/></svg>