<svg width="302" height="302" viewBox="0 0 302 302" fill="none" xmlns="http://www.w3.org/2000/svg">
<g clip-path="url(#clip0)">
<path d="M200 208.333V146.667C200 133.297 177.564 122 151 122C124.436 122 102 133.297 102 146.667V208.333C102 221.703 124.436 233 151 233C177.564 233 200 221.703 200 208.333ZM151 134.333C173.607 134.333 187.327 143.626 187.75 146.63C187.327 149.707 173.607 159 151 159C128.393 159 114.673 149.707 114.25 146.704C114.673 143.627 128.393 134.333 151 134.333ZM114.25 162.743C123.309 167.966 136.527 171.333 151 171.333C165.473 171.333 178.691 167.966 187.75 162.743V177.463C187.327 180.54 173.607 189.833 151 189.833C128.393 189.833 114.673 180.54 114.25 177.5V162.743ZM114.25 208.333V193.576C123.309 198.8 136.527 202.167 151 202.167C165.473 202.167 178.691 198.8 187.75 193.576V208.296C187.327 211.373 173.607 220.667 151 220.667C128.393 220.667 114.673 211.373 114.25 208.333Z" fill="white"/>
<path d="M4 133.5V250.5H298V154.5L181 105V52L4 133.5Z" stroke="white" stroke-width="10"/>
</g>
<defs>
<clipPath id="clip0">
<rect width="302" height="302" fill="white"/>
</clipPath>
</defs>
</svg>
